<?xml version="1.0" encoding="UTF-8"?>
<!DOCTYPE svg PUBLIC "-//W3C//DTD SVG 1.1//EN" "http://www.w3.org/Graphics/SVG/1.1/DTD/svg11.dtd">
<svg version="1.1" xmlns="http://www.w3.org/2000/svg" xmlns:xlink="http://www.w3.org/1999/xlink" x="0" y="0" width="612" height="792" viewBox="0, 0, 612, 792">
  <g id="Calque_1">
    <path d="M168.453,561.462 C168.453,575.274 177.962,583.878 192.453,583.878 L265.132,583.878 C279.849,583.878 289.132,575.274 289.132,561.462 L289.132,161.84 C289.132,148.029 279.849,139.425 265.132,139.425 L192.453,139.425 C177.962,139.425 168.453,148.029 168.453,161.84 z M322.415,561.462 C322.415,575.274 331.924,583.878 346.188,583.878 L419.092,583.878 C433.583,583.878 443.093,575.274 443.093,561.462 L443.093,228.18 C443.093,214.368 433.583,205.538 419.092,205.538 L346.188,205.538 C331.924,205.538 322.415,214.368 322.415,228.18 z M14.943,561.462 C14.943,575.274 24,583.878 38.943,583.878 L111.622,583.878 C125.887,583.878 135.396,575.274 135.396,561.462 L135.396,294.745 C135.396,280.934 125.887,272.104 111.622,272.104 L38.943,272.104 C24,272.104 14.943,280.934 14.943,294.745 z M476.378,561.462 C476.378,575.274 485.434,583.878 500.379,583.878 L573.054,583.878 C587.322,583.878 596.828,575.274 596.828,561.462 L596.828,359.047 C596.828,345.236 587.322,336.406 573.054,336.406 L500.379,336.406 C485.434,336.406 476.378,345.236 476.378,359.047 z M0,636.859 C0,645.915 7.245,652.028 15.396,652.028 L596.605,652.028 C604.752,652.028 612,645.915 612,636.859 C612,628.028 604.752,621.915 596.605,621.915 L15.396,621.915 C7.245,621.915 0,628.028 0,636.859 z" fill="#CCCCCC"/>
  </g>
</svg>
