<?xml version="1.0" encoding="UTF-8"?>
<!DOCTYPE svg PUBLIC "-//W3C//DTD SVG 1.1//EN" "http://www.w3.org/Graphics/SVG/1.1/DTD/svg11.dtd">
<svg version="1.1" xmlns="http://www.w3.org/2000/svg" xmlns:xlink="http://www.w3.org/1999/xlink" x="0" y="0" width="612" height="792" viewBox="0, 0, 612, 792">
  <g id="Calque_1">
    <path d="M305.881,701.329 C473.723,701.329 612,563.051 612,395.449 C612,227.608 473.963,89.329 306.119,89.329 C291.815,89.329 286.093,96.481 286.093,108.64 L286.093,230.468 C286.093,239.289 291.815,246.442 301.351,246.442 C310.649,246.442 316.371,239.289 316.371,230.468 L316.371,123.422 C462.996,129.382 578.149,248.587 578.149,395.449 C578.149,545.886 456.556,667.714 305.881,667.714 C155.444,667.714 33.616,545.886 33.616,395.449 C33.854,324.163 61.271,259.793 105.616,211.395 C112.053,203.766 112.53,194.23 106.093,187.316 C99.417,180.402 88.689,180.879 81.298,189.223 C30.994,243.819 0,316.296 0,395.449 C0,563.051 138.278,701.329 305.881,701.329 z M348.08,433.117 C369.298,410.707 364.53,381.382 339.497,363.263 L181.431,250.018 C169.033,241.435 156.874,253.594 165.695,265.992 L278.941,424.058 C296.821,449.091 326.384,454.098 348.08,433.117 z" fill="#333333"/>
  </g>
</svg>
