<?xml version="1.0" encoding="UTF-8"?>
<!DOCTYPE svg PUBLIC "-//W3C//DTD SVG 1.1//EN" "http://www.w3.org/Graphics/SVG/1.1/DTD/svg11.dtd">
<svg version="1.1" xmlns="http://www.w3.org/2000/svg" xmlns:xlink="http://www.w3.org/1999/xlink" x="0" y="0" width="612" height="792" viewBox="0, 0, 612, 792">
  <g id="Calque_1">
    <path d="M87.097,401.112 L151.14,401.112 C155.437,401.112 159.733,398.831 160.756,394.797 L169.35,363.752 L200.246,488.108 C202.497,496.878 218.661,497.053 220.093,488.108 L247.92,330.602 L279.225,564.055 C280.657,574.403 298.049,574.403 299.072,564.055 L328.536,281.141 L357.795,563.704 C359.023,574.228 376.21,574.403 377.847,563.704 L409.152,330.602 L436.979,488.459 C438.616,497.053 454.577,497.053 456.827,488.459 L487.518,364.805 L496.318,394.797 C497.546,399.358 501.635,401.112 505.93,401.112 L568.543,401.112 C575.089,401.112 580,396.902 580,391.64 C580,386.203 575.089,381.818 568.543,381.818 L513.297,381.818 L496.112,324.288 C493.451,314.992 478.923,315.167 476.468,324.463 L448.437,439.348 L417.541,265.004 C415.7,254.656 398.922,254.831 397.49,265.004 L369.049,478.286 L338.562,183.445 C337.539,172.921 319.534,172.921 318.51,183.445 L288.023,478.286 L259.378,265.004 C257.946,254.656 241.372,254.656 239.531,265.004 L208.635,439.348 L180.399,324.639 C178.148,315.518 163.416,315.518 160.756,324.639 L143.569,381.818 L87.097,381.818 C80.754,381.818 75.639,386.203 75.639,391.64 C75.639,396.902 80.754,401.112 87.097,401.112 z" fill="#323232"/>
    <g>
      <path d="M29.5,188.968 L29.5,632" fill-opacity="0" stroke="#333333" stroke-width="18"/>
      <path d="M42.7,188.968 L29.5,153.768 L16.3,188.968 z" fill="#333333" fill-opacity="1" stroke="#333333" stroke-width="18" stroke-opacity="1"/>
    </g>
    <g>
      <path d="M549.9,629 L20.5,629" fill-opacity="0" stroke="#333333" stroke-width="18"/>
      <path d="M549.9,642.2 L585.1,629 L549.9,615.8 z" fill="#333333" fill-opacity="1" stroke="#333333" stroke-width="18" stroke-opacity="1"/>
    </g>
  </g>
</svg>
