<?xml version="1.0" encoding="UTF-8"?>
<!DOCTYPE svg PUBLIC "-//W3C//DTD SVG 1.1//EN" "http://www.w3.org/Graphics/SVG/1.1/DTD/svg11.dtd">
<svg version="1.1" xmlns="http://www.w3.org/2000/svg" xmlns:xlink="http://www.w3.org/1999/xlink" x="0" y="0" width="612" height="792" viewBox="0, 0, 612, 792">
  <g id="Calque_1">
    <path d="M306.112,182.681 C292.358,160.942 232.689,129.222 160.819,129.222 C78.524,129.222 8.207,171.368 0,202.645 L0,641.183 C0,655.379 9.094,661.59 19.964,661.59 C28.836,661.59 33.938,658.928 39.04,654.492 C57.895,635.193 95.16,611.68 160.819,611.68 C227.809,611.68 268.624,635.859 283.93,653.605 C288.81,658.041 294.798,661.59 306.112,661.59 C317.202,661.59 323.191,657.598 328.071,653.605 C344.264,636.524 384.193,611.68 451.182,611.68 C516.84,611.68 555.214,634.75 572.963,654.492 C578.065,658.928 583.166,661.59 592.039,661.59 C603.128,661.59 612,655.379 612,641.183 L612,202.645 C603.796,171.368 533.476,129.222 451.182,129.222 C379.312,129.222 319.642,160.942 306.112,182.681 z M31.72,212.626 C35.047,195.325 88.506,159.39 160.819,159.39 C233.576,159.39 287.257,195.546 290.14,212.626 L290.14,621.884 C261.747,596.153 213.834,581.735 160.819,581.735 C107.361,581.735 59.891,596.597 31.72,622.328 z M580.282,212.626 L580.282,622.328 C552.111,596.597 504.638,581.735 451.182,581.735 C398.167,581.735 350.254,596.153 321.861,621.884 L321.861,212.626 C324.744,195.546 378.425,159.39 451.182,159.39 C523.496,159.39 576.952,195.325 580.282,212.626 z" fill="#CBCBCB"/>
  </g>
</svg>
