<?xml version="1.0" encoding="UTF-8"?>
<!DOCTYPE svg PUBLIC "-//W3C//DTD SVG 1.1//EN" "http://www.w3.org/Graphics/SVG/1.1/DTD/svg11.dtd">
<svg version="1.1" xmlns="http://www.w3.org/2000/svg" xmlns:xlink="http://www.w3.org/1999/xlink" x="0" y="0" width="612" height="792" viewBox="0, 0, 612, 792">
  <g id="Calque_1">
    <path d="M0,223.929 C0,237.073 8.301,245.144 22.137,245.144 L104.69,245.144 L104.69,618.709 C104.69,674.744 133.284,703.568 189.55,703.568 L526.681,703.568 C578.333,703.568 612,668.749 612,614.559 L612,533.85 C612,520.475 603.929,512.404 590.097,512.404 L559.886,512.404 L559.886,173.198 C559.886,117.163 531.064,88.11 475.488,88.11 L68.026,88.11 C28.363,88.11 0,114.626 0,159.593 z M136.051,618.248 L136.051,159.593 C136.051,143.22 132.592,129.615 126.136,119.469 L473.873,119.469 C509.845,119.469 528.528,138.378 528.528,173.889 L528.528,512.404 L264.724,512.404 C250.888,512.404 242.587,520.475 242.587,533.85 L242.587,618.248 C242.587,652.376 222.755,671.977 189.55,672.207 C155.883,671.977 136.051,651.915 136.051,618.248 z M31.361,214.013 L31.361,159.593 C31.361,133.766 47.733,119.469 68.026,119.469 C90.624,119.469 104.69,133.766 104.69,159.593 L104.69,214.013 z M218.605,245.374 L445.972,245.374 C453.58,245.374 459.115,239.609 459.115,232.23 C459.115,225.312 453.58,219.548 445.972,219.548 L218.605,219.548 C210.995,219.548 205.461,225.312 205.461,232.23 C205.461,239.609 210.995,245.374 218.605,245.374 z M218.605,350.065 L334.133,350.065 C341.512,350.065 347.277,344.3 347.277,337.382 C347.277,330.003 341.512,324.238 334.133,324.238 L218.605,324.238 C210.995,324.238 205.461,330.003 205.461,337.382 C205.461,344.3 210.995,350.065 218.605,350.065 z M255.73,672.207 C267.491,659.294 273.717,640.846 273.717,617.095 L273.717,543.765 L580.869,543.765 L580.869,614.559 C580.869,648.686 558.502,672.207 526.681,672.207 z" fill="#333333"/>
  </g>
</svg>
