<?xml version="1.0" encoding="UTF-8"?>
<!DOCTYPE svg PUBLIC "-//W3C//DTD SVG 1.1//EN" "http://www.w3.org/Graphics/SVG/1.1/DTD/svg11.dtd">
<svg version="1.1" xmlns="http://www.w3.org/2000/svg" xmlns:xlink="http://www.w3.org/1999/xlink" x="0" y="0" width="612" height="792" viewBox="0, 0, 612, 792">
  <g id="Calque_1">
    <path d="M305.938,394.225 C343.304,394.225 372.799,361.732 372.799,320.74 C372.799,281.123 342.93,249.13 305.938,249.13 C269.194,249.13 238.951,281.498 239.2,320.99 C239.45,361.857 268.695,394.225 305.938,394.225 z M305.938,378.103 C278.319,378.103 256.197,353.233 256.197,320.99 C255.946,290.121 278.567,265.252 305.938,265.252 C333.432,265.252 355.802,289.746 355.802,320.74 C355.802,353.108 333.683,378.103 305.938,378.103 z M120.225,397.849 C152.718,397.849 178.463,369.605 178.463,333.487 C178.463,298.995 152.344,270.75 120.225,270.75 C88.357,270.75 61.987,299.369 62.237,333.612 C62.487,369.605 87.857,397.849 120.225,397.849 z M491.774,397.849 C524.143,397.849 549.638,369.605 549.887,333.612 C550.137,299.369 523.767,270.75 491.774,270.75 C459.655,270.75 433.535,298.995 433.535,333.487 C433.535,369.605 459.281,397.849 491.774,397.849 z M120.225,381.853 C96.855,381.853 78.234,360.857 78.234,333.612 C78.234,307.993 97.105,286.747 120.225,286.747 C143.596,286.747 162.591,307.743 162.591,333.487 C162.591,360.857 143.72,381.853 120.225,381.853 z M491.774,381.853 C468.278,381.853 449.532,360.857 449.532,333.487 C449.532,307.743 468.529,286.747 491.774,286.747 C514.893,286.747 533.89,307.993 533.89,333.612 C533.89,360.857 515.144,381.853 491.774,381.853 z M27.619,542.32 L163.591,542.32 C158.342,539.57 153.843,533.321 153.344,526.573 L25.744,526.573 C18.746,526.573 15.997,524.073 15.997,517.7 C15.997,472.959 63.737,433.592 119.975,433.592 C145.22,433.592 167.966,440.59 185.837,453.963 C189.336,449.963 193.335,446.339 197.834,442.84 C176.214,426.468 149.344,417.845 119.975,417.845 C49.99,417.845 -0,468.585 -0,518.449 C-0,534.571 9.123,542.32 27.619,542.32 z M584.381,542.32 C602.875,542.32 612,534.571 612,518.449 C612,468.585 562.134,417.845 492.025,417.845 C462.78,417.845 435.785,426.468 414.165,442.84 C418.79,446.339 422.663,449.963 426.287,453.963 C444.16,440.59 466.78,433.592 492.025,433.592 C548.261,433.592 596.003,472.959 596.003,517.7 C596.003,524.073 593.377,526.573 586.254,526.573 L458.657,526.573 C458.28,533.321 453.658,539.57 448.409,542.32 z M200.209,542.32 L411.166,542.32 C433.287,542.32 443.784,535.196 443.784,519.574 C443.784,477.708 391.046,418.345 305.687,418.345 C220.454,418.345 167.715,477.708 167.715,519.574 C167.715,535.196 178.213,542.32 200.209,542.32 z M196.46,526.198 C187.586,526.198 184.712,524.073 184.712,518.075 C184.712,485.456 228.954,434.467 305.687,434.467 C382.546,434.467 426.786,485.456 426.786,518.075 C426.786,524.073 423.912,526.198 415.041,526.198 z" fill="#333333"/>
  </g>
</svg>
