<?xml version="1.0" encoding="UTF-8"?>
<!DOCTYPE svg PUBLIC "-//W3C//DTD SVG 1.1//EN" "http://www.w3.org/Graphics/SVG/1.1/DTD/svg11.dtd">
<svg version="1.1" xmlns="http://www.w3.org/2000/svg" xmlns:xlink="http://www.w3.org/1999/xlink" x="0" y="0" width="612" height="792" viewBox="0, 0, 612, 792">
  <g id="Calque_1">
    <path d="M584.78,150.055 L604.44,130.398 C614.268,120.324 614.515,108.776 605.175,99.439 L600.998,95.508 C592.398,86.909 580.362,87.89 571.022,96.982 L551.614,116.639 z M218.679,488.639 L269.295,465.297 L564.637,170.203 L531.219,137.032 L236.124,432.126 L211.554,481.514 C209.588,485.445 214.256,490.605 218.679,488.639 z M90.42,700.93 L458.243,700.93 C513.284,700.93 543.995,669.725 543.995,611.001 L543.995,272.908 L510.577,306.324 L510.577,609.281 C510.577,647.612 489.447,667.513 457.262,667.513 L91.157,667.513 C53.318,667.513 33.17,647.612 33.17,609.281 L33.17,248.338 C33.17,210.007 53.318,190.105 91.157,190.105 L396.077,190.105 L429.495,156.689 L90.42,156.689 C30.713,156.689 -0,187.402 -0,246.618 L-0,611.001 C-0,670.217 30.713,700.93 90.42,700.93 z" fill="#CCFB36"/>
  </g>
</svg>
