<?xml version="1.0" encoding="UTF-8"?>
<!DOCTYPE svg PUBLIC "-//W3C//DTD SVG 1.1//EN" "http://www.w3.org/Graphics/SVG/1.1/DTD/svg11.dtd">
<svg version="1.1" xmlns="http://www.w3.org/2000/svg" xmlns:xlink="http://www.w3.org/1999/xlink" x="0" y="0" width="612" height="792" viewBox="0, 0, 612, 792">
  <g id="Calque_1">
    <path d="M104.473,658.353 C125.8,658.353 136.927,643.208 142.8,624.044 L279.418,174.317 L589.743,174.317 C603.036,174.317 612,165.972 612,153.299 C612,140.626 603.036,132.59 589.743,132.59 L278.49,132.59 C255.617,132.59 244.799,141.245 238.309,161.335 L106.945,601.79 L102.927,601.79 L43.272,392.536 C39.564,379.863 32.454,373.681 21.636,373.681 C8.964,373.681 -0,382.645 -0,394.081 C-0,398.717 1.236,403.044 2.473,406.753 L68.309,626.826 C74.181,645.371 84.691,658.353 104.473,658.353 z M338.763,600.862 C347.418,600.862 352.054,597.462 358.545,588.499 L433.654,479.39 L434.89,479.39 L509.69,588.499 C516.181,597.462 520.818,600.862 529.472,600.862 C540.908,600.862 549.872,592.826 549.872,581.39 C549.872,576.135 548.327,572.117 544.927,567.481 L460.545,448.79 L545.545,329.481 C549.254,324.536 550.799,320.517 550.799,315.572 C550.799,305.372 542.145,297.335 531.017,297.335 C522.672,297.335 517.418,300.117 511.545,309.081 L438.599,418.19 L436.745,418.19 L362.563,308.772 C356.69,300.117 351.745,297.335 342.781,297.335 C331.345,297.335 322.381,305.99 322.381,316.808 C322.381,322.372 323.617,326.39 327.945,331.644 L409.545,447.863 L324.236,569.026 C320.836,573.662 319.6,577.062 319.6,582.626 C319.6,592.826 327.945,600.862 338.763,600.862 z" fill="#CBCBCB"/>
  </g>
</svg>
