<?xml version="1.0" encoding="UTF-8"?>
<!DOCTYPE svg PUBLIC "-//W3C//DTD SVG 1.1//EN" "http://www.w3.org/Graphics/SVG/1.1/DTD/svg11.dtd">
<svg version="1.1" xmlns="http://www.w3.org/2000/svg" xmlns:xlink="http://www.w3.org/1999/xlink" x="0" y="0" width="612" height="792" viewBox="0, 0, 612, 792">
  <g id="Calque_1">
    <path d="M-0,508.094 C-0,572.167 57.646,620.741 130.603,620.741 C203.37,620.741 260.828,572.167 260.828,508.094 L260.828,435.515 C274.058,429.278 290.123,425.876 306.378,425.876 C323.955,425.876 338.696,428.522 351.361,434.193 L351.361,508.094 C351.361,572.167 408.63,620.741 481.588,620.741 C554.352,620.741 612,572.167 612,508.094 C612,491.839 609.352,476.719 600.658,456.684 L494.814,217.592 C481.774,188.297 454.937,171.097 422.05,171.097 C378.577,171.097 351.361,198.692 351.361,239.706 L351.361,274.294 C337.751,269.758 322.632,267.301 306.378,267.301 C290.69,267.301 275.003,270.136 260.828,275.428 L260.828,239.706 C260.828,198.692 233.611,171.097 189.95,171.097 C157.063,171.097 130.224,188.297 117.183,217.592 L11.34,456.684 C2.646,476.719 -0,491.839 -0,508.094 z M556.999,417.182 C536.209,403.385 509.748,395.258 481.588,395.258 C436.98,395.258 397.478,414.536 375.554,444.399 L375.554,242.541 C375.554,214.19 393.511,194.911 422.805,195.101 C444.919,195.29 463.252,207.386 472.514,228.177 z M55.19,417.182 L139.675,228.177 C148.747,207.386 167.081,195.101 189.194,195.101 C218.679,194.911 236.635,214.19 236.635,242.541 L236.635,444.399 C214.521,414.536 175.208,395.258 130.603,395.258 C102.252,395.258 75.98,403.385 55.19,417.182 z M306.378,289.225 C323.955,289.225 338.696,292.06 351.361,297.73 L351.361,342.525 C337.751,337.989 322.632,335.532 306.378,335.532 C290.69,335.532 275.003,338.367 260.828,343.659 L260.828,298.865 C274.058,292.816 290.123,289.225 306.378,289.225 z M306.378,357.456 C323.955,357.456 338.696,360.292 351.361,365.962 L351.361,410.756 C337.751,406.22 322.632,403.763 306.378,403.763 C290.69,403.763 275.003,406.787 260.828,411.89 L260.828,367.285 C274.058,361.048 290.123,357.456 306.378,357.456 z M25.894,508.094 C25.894,455.739 70.499,419.639 130.603,419.639 C190.517,419.639 235.879,455.739 235.879,508.094 C235.879,560.448 190.706,596.548 130.603,596.548 C70.499,596.548 25.894,560.259 25.894,508.094 z M586.104,508.094 C586.104,560.259 541.5,596.548 481.588,596.548 C421.481,596.548 376.309,560.448 376.309,508.094 C376.309,455.739 421.671,419.639 481.588,419.639 C541.5,419.639 586.104,455.739 586.104,508.094 z" fill="#CDCDCD"/>
  </g>
</svg>
